<svg id="visual" viewBox="0 0 900 600" width="900" height="600" xmlns="http://www.w3.org/2000/svg" xmlns:xlink="http://www.w3.org/1999/xlink" version="1.1"><rect x="0" y="0" width="900" height="600" fill="#1b1f23"></rect><path d="M0 205L21.5 207.2C43 209.3 86 213.7 128.8 213.3C171.7 213 214.3 208 257.2 211.3C300 214.7 343 226.3 385.8 229.5C428.7 232.7 471.3 227.3 514.2 226.2C557 225 600 228 642.8 224.3C685.7 220.7 728.3 210.3 771.2 202.7C814 195 857 190 878.5 187.5L900 185L900 0L878.5 0C857 0 814 0 771.2 0C728.3 0 685.7 0 642.8 0C600 0 557 0 514.2 0C471.3 0 428.7 0 385.8 0C343 0 300 0 257.2 0C214.3 0 171.7 0 128.8 0C86 0 43 0 21.5 0L0 0Z" fill="#0066ff"></path><path d="M0 172L21.5 169.3C43 166.7 86 161.3 128.8 160C171.7 158.7 214.3 161.3 257.2 163.8C300 166.3 343 168.7 385.8 163C428.7 157.3 471.3 143.7 514.2 141.7C557 139.7 600 149.3 642.8 161C685.7 172.7 728.3 186.3 771.2 193.7C814 201 857 202 878.5 202.5L900 203L900 0L878.5 0C857 0 814 0 771.2 0C728.3 0 685.7 0 642.8 0C600 0 557 0 514.2 0C471.3 0 428.7 0 385.8 0C343 0 300 0 257.2 0C214.3 0 171.7 0 128.8 0C86 0 43 0 21.5 0L0 0Z" fill="#254bcb"></path><path d="M0 111L21.5 115.8C43 120.7 86 130.3 128.8 128C171.7 125.7 214.3 111.3 257.2 103.3C300 95.3 343 93.7 385.8 102.8C428.7 112 471.3 132 514.2 136.7C557 141.3 600 130.7 642.8 126.7C685.7 122.7 728.3 125.3 771.2 121.8C814 118.3 857 108.7 878.5 103.8L900 99L900 0L878.5 0C857 0 814 0 771.2 0C728.3 0 685.7 0 642.8 0C600 0 557 0 514.2 0C471.3 0 428.7 0 385.8 0C343 0 300 0 257.2 0C214.3 0 171.7 0 128.8 0C86 0 43 0 21.5 0L0 0Z" fill="#26339a"></path><path d="M0 98L21.5 100.8C43 103.7 86 109.3 128.8 109.5C171.7 109.7 214.3 104.3 257.2 96.8C300 89.3 343 79.7 385.8 78.2C428.7 76.7 471.3 83.3 514.2 83.2C557 83 600 76 642.8 79C685.7 82 728.3 95 771.2 99.5C814 104 857 100 878.5 98L900 96L900 0L878.5 0C857 0 814 0 771.2 0C728.3 0 685.7 0 642.8 0C600 0 557 0 514.2 0C471.3 0 428.7 0 385.8 0C343 0 300 0 257.2 0C214.3 0 171.7 0 128.8 0C86 0 43 0 21.5 0L0 0Z" fill="#1d1d6d"></path><path d="M0 33L21.5 32.2C43 31.3 86 29.7 128.8 31.8C171.7 34 214.3 40 257.2 45.7C300 51.3 343 56.7 385.8 59.8C428.7 63 471.3 64 514.2 60C557 56 600 47 642.8 42.5C685.7 38 728.3 38 771.2 41.8C814 45.7 857 53.3 878.5 57.2L900 61L900 0L878.5 0C857 0 814 0 771.2 0C728.3 0 685.7 0 642.8 0C600 0 557 0 514.2 0C471.3 0 428.7 0 385.8 0C343 0 300 0 257.2 0C214.3 0 171.7 0 128.8 0C86 0 43 0 21.5 0L0 0Z" fill="#100843"></path></svg>