<svg id="visual" viewBox="0 0 900 600" width="900" height="600" xmlns="http://www.w3.org/2000/svg" xmlns:xlink="http://www.w3.org/1999/xlink" version="1.1"><path d="M0 163L25 157C50 151 100 139 150 134C200 129 250 131 300 128C350 125 400 117 450 114C500 111 550 113 600 113C650 113 700 111 750 124C800 137 850 165 875 179L900 193L900 0L875 0C850 0 800 0 750 0C700 0 650 0 600 0C550 0 500 0 450 0C400 0 350 0 300 0C250 0 200 0 150 0C100 0 50 0 25 0L0 0Z" fill="#2f5c7a"></path><path d="M0 211L25 203C50 195 100 179 150 172C200 165 250 167 300 164C350 161 400 153 450 151C500 149 550 153 600 154C650 155 700 153 750 164C800 175 850 199 875 211L900 223L900 191L875 177C850 163 800 135 750 122C700 109 650 111 600 111C550 111 500 109 450 112C400 115 350 123 300 126C250 129 200 127 150 132C100 137 50 149 25 155L0 161Z" fill="#346686"></path><path d="M0 253L25 244C50 235 100 217 150 210C200 203 250 207 300 207C350 207 400 203 450 201C500 199 550 199 600 199C650 199 700 199 750 209C800 219 850 239 875 249L900 259L900 221L875 209C850 197 800 173 750 162C700 151 650 153 600 152C550 151 500 147 450 149C400 151 350 159 300 162C250 165 200 163 150 170C100 177 50 193 25 201L0 209Z" fill="#386f93"></path><path d="M0 289L25 283C50 277 100 265 150 257C200 249 250 245 300 241C350 237 400 233 450 235C500 237 550 245 600 245C650 245 700 237 750 245C800 253 850 277 875 289L900 301L900 257L875 247C850 237 800 217 750 207C700 197 650 197 600 197C550 197 500 197 450 199C400 201 350 205 300 205C250 205 200 201 150 208C100 215 50 233 25 242L0 251Z" fill="#3d79a0"></path><path d="M0 349L25 343C50 337 100 325 150 318C200 311 250 309 300 304C350 299 400 291 450 296C500 301 550 319 600 319C650 319 700 301 750 307C800 313 850 343 875 358L900 373L900 299L875 287C850 275 800 251 750 243C700 235 650 243 600 243C550 243 500 235 450 233C400 231 350 235 300 239C250 243 200 247 150 255C100 263 50 275 25 281L0 287Z" fill="#4883a9"></path><path d="M0 457L25 447C50 437 100 417 150 403C200 389 250 381 300 380C350 379 400 385 450 395C500 405 550 419 600 419C650 419 700 405 750 407C800 409 850 427 875 436L900 445L900 371L875 356C850 341 800 311 750 305C700 299 650 317 600 317C550 317 500 299 450 294C400 289 350 297 300 302C250 307 200 309 150 316C100 323 50 335 25 341L0 347Z" fill="#578cb0"></path><path d="M0 553L25 552C50 551 100 549 150 547C200 545 250 543 300 546C350 549 400 557 450 562C500 567 550 569 600 568C650 567 700 563 750 558C800 553 850 547 875 544L900 541L900 443L875 434C850 425 800 407 750 405C700 403 650 417 600 417C550 417 500 403 450 393C400 383 350 377 300 378C250 379 200 387 150 401C100 415 50 435 25 445L0 455Z" fill="#6696b7"></path><path d="M0 601L25 601C50 601 100 601 150 601C200 601 250 601 300 601C350 601 400 601 450 601C500 601 550 601 600 601C650 601 700 601 750 601C800 601 850 601 875 601L900 601L900 539L875 542C850 545 800 551 750 556C700 561 650 565 600 566C550 567 500 565 450 560C400 555 350 547 300 544C250 541 200 543 150 545C100 547 50 549 25 550L0 551Z" fill="#75a0be"></path></svg>