<svg id="visual" viewBox="0 0 900 600" width="900" height="600" xmlns="http://www.w3.org/2000/svg" xmlns:xlink="http://www.w3.org/1999/xlink" version="1.1"><path d="M0 85L37.5 84C75 83 150 81 225 77C300 73 375 67 450 69C525 71 600 81 675 79C750 77 825 63 862.5 56L900 49L900 0L862.5 0C825 0 750 0 675 0C600 0 525 0 450 0C375 0 300 0 225 0C150 0 75 0 37.5 0L0 0Z" fill="#001a39"></path><path d="M0 223L37.5 215C75 207 150 191 225 179C300 167 375 159 450 169C525 179 600 207 675 204C750 201 825 167 862.5 150L900 133L900 47L862.5 54C825 61 750 75 675 77C600 79 525 69 450 67C375 65 300 71 225 75C150 79 75 81 37.5 82L0 83Z" fill="#001d43"></path><path d="M0 337L37.5 341C75 345 150 353 225 358C300 363 375 365 450 375C525 385 600 403 675 409C750 415 825 409 862.5 406L900 403L900 131L862.5 148C825 165 750 199 675 202C600 205 525 177 450 167C375 157 300 165 225 177C150 189 75 205 37.5 213L0 221Z" fill="#011f4c"></path><path d="M0 427L37.5 433C75 439 150 451 225 457C300 463 375 463 450 467C525 471 600 479 675 480C750 481 825 475 862.5 472L900 469L900 401L862.5 404C825 407 750 413 675 407C600 401 525 383 450 373C375 363 300 361 225 356C150 351 75 343 37.5 339L0 335Z" fill="#092e66"></path><path d="M0 601L37.5 601C75 601 150 601 225 601C300 601 375 601 450 601C525 601 600 601 675 601C750 601 825 601 862.5 601L900 601L900 467L862.5 470C825 473 750 479 675 478C600 477 525 469 450 465C375 461 300 461 225 455C150 449 75 437 37.5 431L0 425Z" fill="#133e82"></path></svg>