<svg id="visual" viewBox="0 0 900 600" width="900" height="600" xmlns="http://www.w3.org/2000/svg" xmlns:xlink="http://www.w3.org/1999/xlink" version="1.1"><path d="M0 37L13.7 41C27.3 45 54.7 53 82 59C109.3 65 136.7 69 163.8 70C191 71 218 69 245.2 68C272.3 67 299.7 67 327 62C354.3 57 381.7 47 409 49C436.3 51 463.7 65 491 72C518.3 79 545.7 79 573 71C600.3 63 627.7 47 654.8 44C682 41 709 51 736.2 55C763.3 59 790.7 57 818 54C845.3 51 872.7 47 886.3 45L900 43L900 0L886.3 0C872.7 0 845.3 0 818 0C790.7 0 763.3 0 736.2 0C709 0 682 0 654.8 0C627.7 0 600.3 0 573 0C545.7 0 518.3 0 491 0C463.7 0 436.3 0 409 0C381.7 0 354.3 0 327 0C299.7 0 272.3 0 245.2 0C218 0 191 0 163.8 0C136.7 0 109.3 0 82 0C54.7 0 27.3 0 13.7 0L0 0Z" fill="#567cac"></path><path d="M0 133L13.7 143C27.3 153 54.7 173 82 172C109.3 171 136.7 149 163.8 139C191 129 218 131 245.2 130C272.3 129 299.7 125 327 130C354.3 135 381.7 149 409 159C436.3 169 463.7 175 491 172C518.3 169 545.7 157 573 143C600.3 129 627.7 113 654.8 113C682 113 709 129 736.2 137C763.3 145 790.7 145 818 149C845.3 153 872.7 161 886.3 165L900 169L900 41L886.3 43C872.7 45 845.3 49 818 52C790.7 55 763.3 57 736.2 53C709 49 682 39 654.8 42C627.7 45 600.3 61 573 69C545.7 77 518.3 77 491 70C463.7 63 436.3 49 409 47C381.7 45 354.3 55 327 60C299.7 65 272.3 65 245.2 66C218 67 191 69 163.8 68C136.7 67 109.3 63 82 57C54.7 51 27.3 43 13.7 39L0 35Z" fill="#628bbe"></path><path d="M0 343L13.7 335C27.3 327 54.7 311 82 306C109.3 301 136.7 307 163.8 293C191 279 218 245 245.2 251C272.3 257 299.7 303 327 315C354.3 327 381.7 305 409 299C436.3 293 463.7 303 491 303C518.3 303 545.7 293 573 297C600.3 301 627.7 319 654.8 312C682 305 709 273 736.2 274C763.3 275 790.7 309 818 311C845.3 313 872.7 283 886.3 268L900 253L900 167L886.3 163C872.7 159 845.3 151 818 147C790.7 143 763.3 143 736.2 135C709 127 682 111 654.8 111C627.7 111 600.3 127 573 141C545.7 155 518.3 167 491 170C463.7 173 436.3 167 409 157C381.7 147 354.3 133 327 128C299.7 123 272.3 127 245.2 128C218 129 191 127 163.8 137C136.7 147 109.3 169 82 170C54.7 171 27.3 151 13.7 141L0 131Z" fill="#6e9ad0"></path><path d="M0 373L13.7 369C27.3 365 54.7 357 82 353C109.3 349 136.7 349 163.8 336C191 323 218 297 245.2 306C272.3 315 299.7 359 327 365C354.3 371 381.7 339 409 332C436.3 325 463.7 343 491 347C518.3 351 545.7 341 573 342C600.3 343 627.7 355 654.8 346C682 337 709 307 736.2 307C763.3 307 790.7 337 818 343C845.3 349 872.7 331 886.3 322L900 313L900 251L886.3 266C872.7 281 845.3 311 818 309C790.7 307 763.3 273 736.2 272C709 271 682 303 654.8 310C627.7 317 600.3 299 573 295C545.7 291 518.3 301 491 301C463.7 301 436.3 291 409 297C381.7 303 354.3 325 327 313C299.7 301 272.3 255 245.2 249C218 243 191 277 163.8 291C136.7 305 109.3 299 82 304C54.7 309 27.3 325 13.7 333L0 341Z" fill="#7aaae3"></path><path d="M0 427L13.7 423C27.3 419 54.7 411 82 412C109.3 413 136.7 423 163.8 411C191 399 218 365 245.2 365C272.3 365 299.7 399 327 411C354.3 423 381.7 413 409 414C436.3 415 463.7 427 491 430C518.3 433 545.7 427 573 424C600.3 421 627.7 421 654.8 413C682 405 709 389 736.2 388C763.3 387 790.7 401 818 404C845.3 407 872.7 399 886.3 395L900 391L900 311L886.3 320C872.7 329 845.3 347 818 341C790.7 335 763.3 305 736.2 305C709 305 682 335 654.8 344C627.7 353 600.3 341 573 340C545.7 339 518.3 349 491 345C463.7 341 436.3 323 409 330C381.7 337 354.3 369 327 363C299.7 357 272.3 313 245.2 304C218 295 191 321 163.8 334C136.7 347 109.3 347 82 351C54.7 355 27.3 363 13.7 367L0 371Z" fill="#89b3e6"></path><path d="M0 529L13.7 536C27.3 543 54.7 557 82 557C109.3 557 136.7 543 163.8 542C191 541 218 553 245.2 554C272.3 555 299.7 545 327 538C354.3 531 381.7 527 409 531C436.3 535 463.7 547 491 553C518.3 559 545.7 559 573 553C600.3 547 627.7 535 654.8 531C682 527 709 531 736.2 531C763.3 531 790.7 527 818 527C845.3 527 872.7 531 886.3 533L900 535L900 389L886.3 393C872.7 397 845.3 405 818 402C790.7 399 763.3 385 736.2 386C709 387 682 403 654.8 411C627.7 419 600.3 419 573 422C545.7 425 518.3 431 491 428C463.7 425 436.3 413 409 412C381.7 411 354.3 421 327 409C299.7 397 272.3 363 245.2 363C218 363 191 397 163.8 409C136.7 421 109.3 411 82 410C54.7 409 27.3 417 13.7 421L0 425Z" fill="#97bbe9"></path><path d="M0 601L13.7 601C27.3 601 54.7 601 82 601C109.3 601 136.7 601 163.8 601C191 601 218 601 245.2 601C272.3 601 299.7 601 327 601C354.3 601 381.7 601 409 601C436.3 601 463.7 601 491 601C518.3 601 545.7 601 573 601C600.3 601 627.7 601 654.8 601C682 601 709 601 736.2 601C763.3 601 790.7 601 818 601C845.3 601 872.7 601 886.3 601L900 601L900 533L886.3 531C872.7 529 845.3 525 818 525C790.7 525 763.3 529 736.2 529C709 529 682 525 654.8 529C627.7 533 600.3 545 573 551C545.7 557 518.3 557 491 551C463.7 545 436.3 533 409 529C381.7 525 354.3 529 327 536C299.7 543 272.3 553 245.2 552C218 551 191 539 163.8 540C136.7 541 109.3 555 82 555C54.7 555 27.3 541 13.7 534L0 527Z" fill="#a5c4ec"></path></svg>